<svg xmlns="http://www.w3.org/2000/svg" width="204" height="28.104" viewBox="0 0 204 28.104">

  <title>
    Capital
  </title>
  <defs></defs>

  <path
    d="M20.657,11.88l6.383,10.2c.355.443.709,1.064,1.33,1.064h.443V28.1H17.465V23.76l-3.99-6.738-1.862,1.684V23.14h2.216V28.1H0V23.14H1.153a1.53,1.53,0,0,0,1.153-1.153V6.295A1.413,1.413,0,0,0,1.153,5.142H0V0H13.742V5.142H11.614v7.181l5.231-5.142c1.153-1.064.8-2.128-.532-2.128h-.621V0H28.636V5.142H28.1c-.709,0-1.241.443-2.039,1.241ZM29.346,23.14h.532A1.783,1.783,0,0,0,31.385,21.9l5.5-15.692a.809.809,0,0,0-.709-1.064h-1.33V0H49.914l7,22.253a1.6,1.6,0,0,0,1.241.887h.621V28.1H44.595V23.14h3.1L46.634,19.5h-7.89c-.8,2.482-.532,3.635,1.419,3.635h1.064V28.1H29.346Zm10.816-7.89h5.231L43,7H42.91Zm19.15,7.89h1.153a1.53,1.53,0,0,0,1.153-1.153V6.295a1.413,1.413,0,0,0-1.153-1.153H59.312V0H88.746V5.142H87.593a1.53,1.53,0,0,0-1.153,1.153V21.987a1.413,1.413,0,0,0,1.153,1.153h1.153V28.1H74.827V23.14h2.305v-18H70.926v18h2.305V28.1H59.312Zm30.587,0h1.153A1.53,1.53,0,0,0,92.2,21.987V6.295a1.53,1.53,0,0,0-1.153-1.153H89.9V0h14.008V5.142h-2.394V16.49h.089L108.162,0h11.7V5.142h-1.153a1.53,1.53,0,0,0-1.153,1.153V21.987a1.413,1.413,0,0,0,1.153,1.153h1.153V28.1H105.945V23.14h2.394v-11.7h-.177L101.6,28.016H89.9Zm36.527,0h1.33a1.53,1.53,0,0,0,1.153-1.153V5.408h-2.216l-.621,5.142h-5.585V0h26.154V10.55h-5.5l-.621-5.142h-2.216V21.987a1.413,1.413,0,0,0,1.153,1.153h1.33V28.1H126.6V23.14Zm18.175,0h.532a1.783,1.783,0,0,0,1.507-1.241l5.5-15.692a.809.809,0,0,0-.709-1.064H150.1V0h15.072l7,22.253a1.6,1.6,0,0,0,1.241.887h.621V28.1H159.849V23.14h3.1L161.888,19.5H154c-.8,2.482-.532,3.635,1.418,3.635h1.064V28.1H144.6Zm10.816-7.89h5.231L158.253,7h-.089Zm28.37,4.876c-.621,1.95-.177,3.014,1.6,3.014h1.064V28.1h-11.88V23.14h.532A1.783,1.783,0,0,0,176.6,21.9l5.5-15.692a.809.809,0,0,0-.709-1.064h-1.33V0h15.072l7,22.253a1.6,1.6,0,0,0,1.241.887H204V28.1H189.815V23.14h3.1L188.308,7h-.089Z"
    fill="#fff" />
</svg>
